<svg width="72" height="82" viewBox="0 0 72 82" fill="none" xmlns="http://www.w3.org/2000/svg">
<path d="M48.3197 82H23.6799C22.6731 81.3978 22.346 80.7871 22.5747 79.9479C22.7863 79.1791 23.4276 78.8011 24.537 78.799C25.593 78.799 26.6489 78.799 27.7391 78.799C28.2885 75.8094 28.8229 72.9138 29.3765 69.8986C28.9404 69.8986 28.6283 69.8986 28.3163 69.8986C21.9997 69.8986 15.6832 69.9029 9.36664 69.8922C8.62276 69.8922 7.86392 69.873 7.14142 69.7235C2.83207 68.8416 0.0104643 65.3267 0.00618911 60.8444C-0.00449877 49.7467 -0.000223621 38.6489 0.00405153 27.5511C0.00405153 22.0247 3.76405 18.2664 9.28755 18.2578C10.025 18.2578 10.7603 18.2578 11.5512 18.2578C11.5512 17.8371 11.5512 17.5211 11.5512 17.2051C11.5512 13.1499 11.5406 9.09474 11.5555 5.03958C11.5641 2.60307 12.8915 0.834948 15.1637 0.158021C15.2856 0.121719 15.3989 0.0533854 15.5164 0C29.1713 0 42.824 0 56.4788 0C59.6809 1.3026 60.4462 2.46 60.4462 6.00052C60.4462 9.78875 60.4462 13.577 60.4462 17.3652C60.4462 17.6449 60.4462 17.9268 60.4462 18.2578C61.3333 18.2578 62.1007 18.2557 62.8702 18.2578C68.1927 18.2813 71.987 22.0674 71.9912 27.391C71.9998 38.5144 71.9976 49.6399 71.9848 60.7633C71.9848 61.5299 71.9207 62.3157 71.7454 63.061C70.7707 67.2251 67.3228 69.8794 62.8723 69.8901C56.4767 69.9071 50.0789 69.8943 43.6833 69.8943C43.3712 69.8943 43.0591 69.8943 42.6209 69.8943C43.181 72.9309 43.7196 75.8479 44.2626 78.7947C45.5173 78.7947 46.6887 78.7712 47.858 78.8011C48.9011 78.8268 49.5467 79.5848 49.4612 80.5778C49.3992 81.3188 48.884 81.6733 48.3176 81.9936L48.3197 82ZM14.8004 11.5099V58.3011H57.1864V11.5099H14.8004ZM68.7271 61.6559H3.21469C3.31516 62.0872 3.37073 62.4268 3.47334 62.7556C4.23859 65.2199 6.33983 66.6912 9.13792 66.6933C27.0508 66.6976 44.9637 66.6955 62.8766 66.6933C63.116 66.6933 63.3554 66.6848 63.5948 66.6656C66.3224 66.4648 68.398 64.464 68.7271 61.6559ZM11.4893 58.3246V29.8489H3.24676V58.3246H11.4893ZM68.7421 58.3182V29.8424H60.4911V58.3182H68.7421ZM14.7747 8.17865H57.1864C57.2163 8.04839 57.2377 7.995 57.2377 7.94375C57.2419 7.08958 57.2484 6.23755 57.2462 5.38339C57.2441 3.71562 56.7225 3.20312 55.0317 3.20312C42.3473 3.20312 29.6629 3.20312 16.9785 3.20312C16.7648 3.20312 16.551 3.19458 16.3394 3.20953C15.4865 3.27146 14.8431 3.80104 14.7918 4.65307C14.7234 5.81474 14.7747 6.98495 14.7747 8.17865ZM40.9985 78.7627C40.4727 75.9055 39.9682 73.1295 39.4317 70.3598C39.3975 70.1805 39.1067 69.9221 38.9336 69.9199C36.858 69.8901 34.7824 69.9007 32.6406 69.9007C32.0912 72.8711 31.5504 75.7923 30.9989 78.7648H41.0006L40.9985 78.7627ZM11.4914 26.5603V21.5165C6.56855 21.0552 3.29592 23.0817 3.3173 26.5603H11.4914ZM60.4825 26.5539H68.7079C68.5839 24.2348 66.8568 22.1037 64.5525 21.6638C63.24 21.414 61.8698 21.4716 60.4846 21.3883V26.5539H60.4825Z" fill="#FD6F00"/>
</svg>
